<svg width="0" height="0" class="hidden">
  <symbol fill="none" xmlns="http://www.w3.org/2000/svg" viewBox="0 0 152 26" id="logo">
    <path d="M36.5526 15.2009C35.6184 14.2184 34.4877 13.5744 33.1726 13.2479C34.4665 12.9154 35.5851 12.2654 36.5253 11.2768C37.9281 9.80443 38.6265 7.95722 38.6416 5.7442H35.0258C35.0198 7.01397 34.66 8.05095 33.9465 8.8642C33.227 9.6835 32.2807 10.0916 31.1107 10.0916C29.9588 10.0916 29.0126 9.68048 28.2749 8.8642C27.5402 8.05397 27.1744 7.01397 27.1684 5.7442H23.5435C23.5435 8.00257 24.2419 9.85885 25.6386 11.3191C26.5758 12.2986 27.7035 12.9396 29.0156 13.26C27.7519 13.5956 26.6363 14.2426 25.69 15.2282C24.26 16.7186 23.5435 18.59 23.5435 20.8454H27.1653C27.1653 20.8363 27.1623 20.8272 27.1623 20.8182C27.1623 19.5393 27.5251 18.4842 28.2447 17.6589C28.9642 16.8305 29.9105 16.4133 31.0805 16.4133C32.2323 16.4133 33.1786 16.8335 33.9163 17.6709C34.654 18.5084 35.0258 19.5605 35.0258 20.8182C35.0258 20.8272 35.0228 20.8363 35.0228 20.8454H38.6386C38.6386 20.8242 38.6416 20.8091 38.6416 20.7909C38.6447 18.5326 37.9493 16.6702 36.5526 15.2009Z" fill="#111314"></path>
    <path fill-rule="evenodd" clip-rule="evenodd" d="M4.19767 25.7853V19.633C5.34651 20.6126 6.76744 21.1023 8.46046 21.1053C10.8126 21.1053 12.69 20.3586 14.0928 18.8621C15.4895 17.3656 16.194 15.4972 16.194 13.257C16.194 10.9623 15.5016 9.09395 14.12 7.65488C12.7384 6.21279 10.9093 5.49326 8.62976 5.49326C6.67372 5.49326 5.13186 6.05558 4.00116 7.18628V5.74419H0.418602V25.7853H4.19767ZM4.08581 13.3114C4.08581 12.0114 4.46674 10.9442 5.21651 10.1067C5.96628 9.27233 6.97302 8.85209 8.23674 8.85209C9.4793 8.85209 10.486 9.2693 11.257 10.1067C12.0279 10.9442 12.4149 12.0114 12.4149 13.3114C12.4149 14.6114 12.034 15.6756 11.2842 16.504C10.5314 17.3293 9.52465 17.7435 8.26395 17.7435C7.02139 17.7435 6.01465 17.3323 5.24372 16.504C4.47279 15.6726 4.08581 14.6114 4.08581 13.3114Z" fill="#111314"></path>
    <path fill-rule="evenodd" clip-rule="evenodd" d="M17.9867 4.14186C18.4281 4.57116 18.9633 4.78884 19.583 4.78884C20.2209 4.78884 20.7591 4.57116 21.1914 4.14186C21.6207 3.70953 21.8384 3.18046 21.8384 2.5607C21.8384 1.91977 21.6267 1.3786 21.1914 0.937209C20.7591 0.495814 20.2239 0.275116 19.583 0.275116C18.9633 0.275116 18.4281 0.495814 17.9867 0.937209C17.5453 1.3786 17.3246 1.91977 17.3246 2.5607C17.3246 3.18349 17.5453 3.70651 17.9867 4.14186ZM17.6905 20.8484H21.4756V5.74419H17.6905V20.8484Z" fill="#111314"></path>
    <path fill-rule="evenodd" clip-rule="evenodd" d="M42.9951 14.5237H53.7791C53.8153 14.0914 53.8335 13.5744 53.8395 12.9758C53.8395 10.6993 53.1714 8.88233 51.8351 7.52791C50.5019 6.17046 48.703 5.49326 46.4446 5.49326C44.2649 5.49326 42.4781 6.23093 41.0965 7.7093C39.7149 9.18767 39.0226 11.0651 39.0226 13.3416C39.0226 15.7119 39.733 17.5984 41.1539 19.0012C42.5719 20.404 44.4402 21.1023 46.756 21.1023C48.4309 21.1023 49.8186 20.7244 50.9191 19.9716C52.0195 19.2219 52.8328 18.2877 53.3588 17.1781L50.5653 15.4851C49.6039 16.9937 48.3342 17.7435 46.753 17.7435C45.6767 17.7435 44.8091 17.4563 44.1409 16.8819C43.4698 16.3044 43.0888 15.5184 42.9951 14.5237ZM44.1107 9.51721C44.7002 8.96093 45.4681 8.68279 46.4084 8.68279C47.4091 8.68279 48.2163 8.95791 48.836 9.51721C49.4588 10.0765 49.8156 10.793 49.9093 11.6788H43.0798C43.1735 10.793 43.5181 10.0705 44.1107 9.51721Z" fill="#111314"></path>
    <rect x="55.5023" y="0.214661" width="3.78512" height="20.6337" fill="#111314"></rect>
    <path d="M76 5.57791C74.4188 5.57791 73.1581 6.1221 72.2149 7.21349C71.4439 6.1221 70.2498 5.57791 68.6293 5.57791C67.1781 5.57791 66.0958 6.01326 65.3823 6.87791V5.74419H61.5972V20.8454H65.3823V11.3886C65.3823 10.6177 65.5607 10.0161 65.9205 9.58373C66.2742 9.15442 66.7851 8.93675 67.4442 8.93675C68.0851 8.93675 68.5779 9.1514 68.9256 9.58373C69.2732 10.0191 69.4486 10.5995 69.4486 11.3342V20.8454H73.2337V11.3342C73.2337 10.6177 73.406 10.0372 73.7567 9.59884C74.1044 9.15745 74.6093 8.93675 75.2653 8.93675C75.9244 8.93675 76.4263 9.14838 76.7739 9.57163C77.1216 9.99489 77.2939 10.5844 77.2939 11.3372V20.8484H81.076V10.8837C81.076 9.30256 80.6679 8.02373 79.8486 7.04419C79.0323 6.06466 77.7505 5.57791 76 5.57791Z" fill="#111314"></path>
    <path fill-rule="evenodd" clip-rule="evenodd" d="M94.7109 7.15264C94.2607 6.64633 93.6329 6.24235 92.8365 5.94372C92.0353 5.64442 91.1767 5.49326 90.2547 5.49326C87.957 5.49326 86.0947 6.22791 84.6647 7.69721C83.2347 9.16651 82.5212 11.0288 82.5212 13.2872C82.5212 15.6212 83.2347 17.5047 84.6647 18.9467C86.0947 20.3888 87.96 21.1084 90.2547 21.1084C91.346 21.1084 92.2802 20.93 93.0633 20.5702C93.8463 20.2165 94.4147 19.8084 94.7714 19.3579V20.8514H98.2965V5.75023H94.7109V7.15264ZM90.4814 17.7435C91.7451 17.7435 92.7519 17.3263 93.5016 16.4888C94.2514 15.6514 94.6323 14.5812 94.6293 13.2842C94.6293 12.0053 94.2393 10.9472 93.4563 10.1098C92.6733 9.27233 91.6816 8.85512 90.4784 8.85512C89.2177 8.85512 88.2079 9.27535 87.446 10.1098C86.6872 10.9472 86.3033 12.0053 86.3033 13.2842C86.3033 14.5842 86.6902 15.6514 87.4612 16.4888C88.2351 17.3263 89.2419 17.7435 90.4814 17.7435Z" fill="#111314"></path>
    <path d="M113.513 3.37396H109.727V5.74419H105.044V3.37396H101.268V5.74419H99.8565V8.93675H101.268V17.0391C101.268 19.6754 102.614 20.9935 105.304 20.9935C105.679 20.9935 106.036 20.9784 106.363 20.9512C106.689 20.924 106.943 20.8907 107.109 20.8514L107.363 20.797V17.5772H106.487C105.96 17.5772 105.586 17.4502 105.371 17.1933C105.153 16.9393 105.047 16.5312 105.047 15.9658V8.93373H109.73V17.0361C109.73 19.6723 111.073 20.9905 113.767 20.9905C114.141 20.9905 114.498 20.9754 114.825 20.9481C115.151 20.9209 115.405 20.8877 115.571 20.8484L115.825 20.794V17.5742H114.949C114.423 17.5742 114.048 17.4472 113.833 17.1902C113.615 16.9363 113.51 16.5281 113.51 15.9628V8.93071H115.825V5.74419H113.51V3.37396H113.513Z" fill="#111314"></path>
    <path fill-rule="evenodd" clip-rule="evenodd" d="M118.764 7.7093C120.146 6.23093 121.929 5.49326 124.112 5.49326C126.367 5.49326 128.166 6.17349 129.503 7.52791C130.839 8.88233 131.507 10.6963 131.507 12.9758C131.501 13.5744 131.483 14.0944 131.447 14.5237H120.663C120.756 15.5214 121.14 16.3074 121.808 16.8819C122.477 17.4563 123.344 17.7435 124.42 17.7435C126.002 17.7435 127.271 16.9907 128.233 15.4851L131.026 17.1781C130.5 18.2877 129.687 19.2188 128.587 19.9716C127.486 20.7244 126.098 21.1023 124.423 21.1023C122.108 21.1023 120.242 20.404 118.821 19.0012C117.4 17.5984 116.69 15.7119 116.69 13.3416C116.69 11.0621 117.382 9.18767 118.764 7.7093ZM121.775 9.51419C121.183 10.0705 120.838 10.79 120.744 11.6758H127.577C127.483 10.79 127.123 10.0735 126.503 9.51419C125.881 8.95488 125.077 8.67977 124.076 8.67977C123.136 8.67977 122.368 8.95791 121.775 9.51419Z" fill="#111314"></path>
    <path d="M136.955 6.95956V5.74421H133.17V20.8454H136.955V11.6426C136.955 10.9684 137.106 10.4635 137.405 10.134C137.705 9.80747 138.213 9.64119 138.929 9.64119H139.887V5.68677C138.533 5.68979 137.553 6.11305 136.955 6.95956Z" fill="#111314"></path>
    <path d="M150.72 13.3265C150.145 12.6191 149.226 12.0779 147.966 11.703C147.703 11.6275 147.346 11.5337 146.892 11.4219C146.442 11.307 146.109 11.2223 145.904 11.1679C145.018 10.923 144.577 10.4514 144.577 9.75607C144.577 9.38119 144.716 9.07281 144.991 8.837C145.263 8.60421 145.626 8.4863 146.076 8.4863C147.189 8.4863 147.76 9.097 147.799 10.3184H151.27C151.252 8.75839 150.801 7.57026 149.916 6.76305C149.033 5.95281 147.781 5.55072 146.164 5.55072C144.658 5.55072 143.422 5.96491 142.451 6.79026C141.484 7.61863 140.997 8.67072 140.997 9.94956C140.997 12.1686 142.04 13.6591 144.129 14.4089C144.428 14.5237 145.19 14.7505 146.415 15.0891C146.941 15.2403 147.325 15.4307 147.56 15.6544C147.796 15.8812 147.911 16.2107 147.911 16.643C147.911 17.0754 147.742 17.411 147.406 17.6468C147.065 17.8796 146.641 17.9975 146.133 17.9975C144.909 17.9975 144.301 17.3172 144.301 15.9628H140.689C140.634 17.4321 141.03 18.6475 141.889 19.6058C142.744 20.5672 144.144 21.0479 146.079 21.0479C147.639 21.0479 148.945 20.6337 150 19.8084C151.055 18.98 151.581 17.8342 151.581 16.3649C151.581 15.0437 151.294 14.034 150.72 13.3265Z" fill="#111314"></path>
  </symbol>
</svg>